{
	"asset":{
		"generator":"Khronos glTF Blender I/O v3.6.27",
		"version":"2.0"
	},
	"scene":0,
	"scenes":[
		{
			"name":"Scene",
			"nodes":[
				0,
				1,
				2,
				3,
				4,
				5,
				6,
				7,
				8
			]
		}
	],
	"nodes":[
		{
			"mesh":0,
			"name":"Body"
		},
		{
			"mesh":1,
			"name":"Tires",
			"scale":[
				2.0741117000579834,
				2.0741117000579834,
				2.0741117000579834
			]
		},
		{
			"mesh":2,
			"name":"Rockets"
		},
		{
			"mesh":3,
			"name":"Seat"
		},
		{
			"mesh":4,
			"name":"Plane"
		},
		{
			"mesh":5,
			"name":"Spikes"
		},
		{
			"mesh":6,
			"name":"Wheel"
		},
		{
			"name":"Cube-noimp"
		},
		{
			"name":"Sphere-noimp"
		}
	],
	"materials":[
		{
			"alphaMode":"BLEND",
			"doubleSided":true,
			"name":"Material",
			"pbrMetallicRoughness":{
				"baseColorTexture":{
					"index":0
				},
				"metallicFactor":0,
				"roughnessFactor":0.5
			}
		},
		{
			"alphaMode":"BLEND",
			"doubleSided":true,
			"name":"Material",
			"pbrMetallicRoughness":{
				"baseColorTexture":{
					"index":1
				},
				"metallicFactor":0,
				"roughnessFactor":0.5
			}
		}
	],
	"meshes":[
		{
			"name":"Mesh",
			"primitives":[
				{
					"attributes":{
						"POSITION":0,
						"NORMAL":1,
						"TEXCOORD_0":2
					},
					"indices":3,
					"material":0
				}
			]
		},
		{
			"name":"Cylinder",
			"primitives":[
				{
					"attributes":{
						"POSITION":4,
						"NORMAL":5,
						"TEXCOORD_0":6
					},
					"indices":7,
					"material":1
				}
			]
		},
		{
			"name":"Cylinder.001",
			"primitives":[
				{
					"attributes":{
						"POSITION":8,
						"NORMAL":9,
						"TEXCOORD_0":10
					},
					"indices":11,
					"material":1
				}
			]
		},
		{
			"name":"Cube",
			"primitives":[
				{
					"attributes":{
						"POSITION":12,
						"NORMAL":13,
						"TEXCOORD_0":14
					},
					"indices":15,
					"material":0
				}
			]
		},
		{
			"name":"Plane",
			"primitives":[
				{
					"attributes":{
						"POSITION":16,
						"NORMAL":17,
						"TEXCOORD_0":18
					},
					"indices":19,
					"material":0
				}
			]
		},
		{
			"name":"Cone",
			"primitives":[
				{
					"attributes":{
						"POSITION":20,
						"NORMAL":21,
						"TEXCOORD_0":22
					},
					"indices":23,
					"material":1
				}
			]
		},
		{
			"name":"Plane.001",
			"primitives":[
				{
					"attributes":{
						"POSITION":24,
						"NORMAL":25,
						"TEXCOORD_0":26
					},
					"indices":27,
					"material":0
				}
			]
		}
	],
	"textures":[
		{
			"sampler":0,
			"source":0
		},
		{
			"sampler":0,
			"source":0
		}
	],
	"images":[
		{
			"mimeType":"image/png",
			"name":"ash_kart",
			"uri":"ash_kart.png"
		}
	],
	"accessors":[
		{
			"bufferView":0,
			"componentType":5126,
			"count":328,
			"max":[
				0.622233510017395,
				0.3318578898906708,
				1.0370558500289917
			],
			"min":[
				-0.622233510017395,
				-0.1451878398656845,
				-0.6429746747016907
			],
			"type":"VEC3"
		},
		{
			"bufferView":1,
			"componentType":5126,
			"count":328,
			"type":"VEC3"
		},
		{
			"bufferView":2,
			"componentType":5126,
			"count":328,
			"type":"VEC2"
		},
		{
			"bufferView":3,
			"componentType":5123,
			"count":462,
			"type":"SCALAR"
		},
		{
			"bufferView":4,
			"componentType":5126,
			"count":336,
			"max":[
				0.33000004291534424,
				0.08660255372524261,
				0.30000007152557373
			],
			"min":[
				-0.33000004291534424,
				-0.08660255372524261,
				-0.2999999523162842
			],
			"type":"VEC3"
		},
		{
			"bufferView":5,
			"componentType":5126,
			"count":336,
			"type":"VEC3"
		},
		{
			"bufferView":6,
			"componentType":5126,
			"count":336,
			"type":"VEC2"
		},
		{
			"bufferView":7,
			"componentType":5123,
			"count":528,
			"type":"SCALAR"
		},
		{
			"bufferView":8,
			"componentType":5126,
			"count":96,
			"max":[
				0.48164620995521545,
				0.4604528248310089,
				-0.165928915143013
			],
			"min":[
				-0.48164620995521545,
				0.12859496474266052,
				-0.8047279119491577
			],
			"type":"VEC3"
		},
		{
			"bufferView":9,
			"componentType":5126,
			"count":96,
			"type":"VEC3"
		},
		{
			"bufferView":10,
			"componentType":5126,
			"count":96,
			"type":"VEC2"
		},
		{
			"bufferView":11,
			"componentType":5123,
			"count":132,
			"type":"SCALAR"
		},
		{
			"bufferView":12,
			"componentType":5126,
			"count":40,
			"max":[
				0.16592895984649658,
				0.24889340996742249,
				0.10370560735464096
			],
			"min":[
				-0.16592895984649658,
				-0.10370559990406036,
				-0.1451878398656845
			],
			"type":"VEC3"
		},
		{
			"bufferView":13,
			"componentType":5126,
			"count":40,
			"type":"VEC3"
		},
		{
			"bufferView":14,
			"componentType":5126,
			"count":40,
			"type":"VEC2"
		},
		{
			"bufferView":15,
			"componentType":5123,
			"count":60,
			"type":"SCALAR"
		},
		{
			"bufferView":16,
			"componentType":5126,
			"count":32,
			"max":[
				0.41482239961624146,
				0.5496395826339722,
				-0.20741117000579834
			],
			"min":[
				-0.41482239961624146,
				0.18667007982730865,
				-0.5911219120025635
			],
			"type":"VEC3"
		},
		{
			"bufferView":17,
			"componentType":5126,
			"count":32,
			"type":"VEC3"
		},
		{
			"bufferView":18,
			"componentType":5126,
			"count":32,
			"type":"VEC2"
		},
		{
			"bufferView":19,
			"componentType":5123,
			"count":54,
			"type":"SCALAR"
		},
		{
			"bufferView":20,
			"componentType":5126,
			"count":64,
			"max":[
				0.49778681993484497,
				0.0829644650220871,
				0.4977867901325226
			],
			"min":[
				-0.49778681993484497,
				-0.0829644650220871,
				-0.4977867901325226
			],
			"type":"VEC3"
		},
		{
			"bufferView":21,
			"componentType":5126,
			"count":64,
			"type":"VEC3"
		},
		{
			"bufferView":22,
			"componentType":5126,
			"count":64,
			"type":"VEC2"
		},
		{
			"bufferView":23,
			"componentType":5123,
			"count":72,
			"type":"SCALAR"
		},
		{
			"bufferView":24,
			"componentType":5126,
			"count":37,
			"max":[
				0.12444669753313065,
				0.2746671736240387,
				0.28577473759651184
			],
			"min":[
				-0.12444669753313065,
				0.025342019274830818,
				0.0364496074616909
			],
			"type":"VEC3"
		},
		{
			"bufferView":25,
			"componentType":5126,
			"count":37,
			"type":"VEC3"
		},
		{
			"bufferView":26,
			"componentType":5126,
			"count":37,
			"type":"VEC2"
		},
		{
			"bufferView":27,
			"componentType":5123,
			"count":60,
			"type":"SCALAR"
		}
	],
	"bufferViews":[
		{
			"buffer":0,
			"byteLength":3936,
			"byteOffset":0,
			"target":34962
		},
		{
			"buffer":0,
			"byteLength":3936,
			"byteOffset":3936,
			"target":34962
		},
		{
			"buffer":0,
			"byteLength":2624,
			"byteOffset":7872,
			"target":34962
		},
		{
			"buffer":0,
			"byteLength":924,
			"byteOffset":10496,
			"target":34963
		},
		{
			"buffer":0,
			"byteLength":4032,
			"byteOffset":11420,
			"target":34962
		},
		{
			"buffer":0,
			"byteLength":4032,
			"byteOffset":15452,
			"target":34962
		},
		{
			"buffer":0,
			"byteLength":2688,
			"byteOffset":19484,
			"target":34962
		},
		{
			"buffer":0,
			"byteLength":1056,
			"byteOffset":22172,
			"target":34963
		},
		{
			"buffer":0,
			"byteLength":1152,
			"byteOffset":23228,
			"target":34962
		},
		{
			"buffer":0,
			"byteLength":1152,
			"byteOffset":24380,
			"target":34962
		},
		{
			"buffer":0,
			"byteLength":768,
			"byteOffset":25532,
			"target":34962
		},
		{
			"buffer":0,
			"byteLength":264,
			"byteOffset":26300,
			"target":34963
		},
		{
			"buffer":0,
			"byteLength":480,
			"byteOffset":26564,
			"target":34962
		},
		{
			"buffer":0,
			"byteLength":480,
			"byteOffset":27044,
			"target":34962
		},
		{
			"buffer":0,
			"byteLength":320,
			"byteOffset":27524,
			"target":34962
		},
		{
			"buffer":0,
			"byteLength":120,
			"byteOffset":27844,
			"target":34963
		},
		{
			"buffer":0,
			"byteLength":384,
			"byteOffset":27964,
			"target":34962
		},
		{
			"buffer":0,
			"byteLength":384,
			"byteOffset":28348,
			"target":34962
		},
		{
			"buffer":0,
			"byteLength":256,
			"byteOffset":28732,
			"target":34962
		},
		{
			"buffer":0,
			"byteLength":108,
			"byteOffset":28988,
			"target":34963
		},
		{
			"buffer":0,
			"byteLength":768,
			"byteOffset":29096,
			"target":34962
		},
		{
			"buffer":0,
			"byteLength":768,
			"byteOffset":29864,
			"target":34962
		},
		{
			"buffer":0,
			"byteLength":512,
			"byteOffset":30632,
			"target":34962
		},
		{
			"buffer":0,
			"byteLength":144,
			"byteOffset":31144,
			"target":34963
		},
		{
			"buffer":0,
			"byteLength":444,
			"byteOffset":31288,
			"target":34962
		},
		{
			"buffer":0,
			"byteLength":444,
			"byteOffset":31732,
			"target":34962
		},
		{
			"buffer":0,
			"byteLength":296,
			"byteOffset":32176,
			"target":34962
		},
		{
			"buffer":0,
			"byteLength":120,
			"byteOffset":32472,
			"target":34963
		}
	],
	"samplers":[
		{
			"magFilter":9728,
			"minFilter":9984
		}
	],
	"buffers":[
		{
			"byteLength":32592,
			"uri":"ash_kart.bin"
		}
	]
}
