{
	"asset":{
		"generator":"Khronos glTF Blender I/O v3.6.27",
		"version":"2.0"
	},
	"scene":0,
	"scenes":[
		{
			"name":"Scene",
			"nodes":[
				0
			]
		}
	],
	"nodes":[
		{
			"mesh":0,
			"name":"Error",
			"rotation":[
				0.7071068286895752,
				0,
				0,
				0.7071068286895752
			],
			"scale":[
				0.75,
				0.75,
				0.75
			]
		}
	],
	"materials":[
		{
			"doubleSided":true,
			"name":"LetterE",
			"pbrMetallicRoughness":{
				"baseColorFactor":[
					0.8000000715255737,
					0.1000458225607872,
					0.617313027381897,
					1
				],
				"metallicFactor":0,
				"roughnessFactor":0.5
			}
		},
		{
			"doubleSided":true,
			"name":"LetterR",
			"pbrMetallicRoughness":{
				"baseColorFactor":[
					0.8000000715255737,
					0.029265211895108223,
					0.20039093494415283,
					1
				],
				"metallicFactor":0,
				"roughnessFactor":0.5
			}
		},
		{
			"doubleSided":true,
			"name":"LetterO",
			"pbrMetallicRoughness":{
				"baseColorFactor":[
					0.2776187062263489,
					0,
					0.8000000715255737,
					1
				],
				"metallicFactor":0,
				"roughnessFactor":0.5
			}
		}
	],
	"meshes":[
		{
			"name":"Error",
			"primitives":[
				{
					"attributes":{
						"POSITION":0,
						"NORMAL":1,
						"TEXCOORD_0":2
					},
					"indices":3,
					"material":0
				},
				{
					"attributes":{
						"POSITION":4,
						"NORMAL":5,
						"TEXCOORD_0":6
					},
					"indices":7,
					"material":1
				},
				{
					"attributes":{
						"POSITION":8,
						"NORMAL":9,
						"TEXCOORD_0":10
					},
					"indices":11,
					"material":2
				}
			]
		}
	],
	"accessors":[
		{
			"bufferView":0,
			"componentType":5126,
			"count":72,
			"max":[
				-0.6490001082420349,
				0.05000000074505806,
				0
			],
			"min":[
				-1.0450000762939453,
				-0.05000000074505806,
				-0.6820000410079956
			],
			"type":"VEC3"
		},
		{
			"bufferView":1,
			"componentType":5126,
			"count":72,
			"type":"VEC3"
		},
		{
			"bufferView":2,
			"componentType":5126,
			"count":72,
			"type":"VEC2"
		},
		{
			"bufferView":3,
			"componentType":5123,
			"count":132,
			"type":"SCALAR"
		},
		{
			"bufferView":4,
			"componentType":5126,
			"count":198,
			"max":[
				1.121000051498413,
				0.05000000074505806,
				0
			],
			"min":[
				-0.5510001182556152,
				-0.05000000074505806,
				-0.4580000340938568
			],
			"type":"VEC3"
		},
		{
			"bufferView":5,
			"componentType":5126,
			"count":198,
			"type":"VEC3"
		},
		{
			"bufferView":6,
			"componentType":5126,
			"count":198,
			"type":"VEC2"
		},
		{
			"bufferView":7,
			"componentType":5123,
			"count":360,
			"type":"SCALAR"
		},
		{
			"bufferView":8,
			"componentType":5126,
			"count":48,
			"max":[
				0.687999963760376,
				0.05000000074505806,
				0.009000000543892384
			],
			"min":[
				0.20799992978572845,
				-0.05000000074505806,
				-0.4580000340938568
			],
			"type":"VEC3"
		},
		{
			"bufferView":9,
			"componentType":5126,
			"count":48,
			"type":"VEC3"
		},
		{
			"bufferView":10,
			"componentType":5126,
			"count":48,
			"type":"VEC2"
		},
		{
			"bufferView":11,
			"componentType":5123,
			"count":96,
			"type":"SCALAR"
		}
	],
	"bufferViews":[
		{
			"buffer":0,
			"byteLength":864,
			"byteOffset":0,
			"target":34962
		},
		{
			"buffer":0,
			"byteLength":864,
			"byteOffset":864,
			"target":34962
		},
		{
			"buffer":0,
			"byteLength":576,
			"byteOffset":1728,
			"target":34962
		},
		{
			"buffer":0,
			"byteLength":264,
			"byteOffset":2304,
			"target":34963
		},
		{
			"buffer":0,
			"byteLength":2376,
			"byteOffset":2568,
			"target":34962
		},
		{
			"buffer":0,
			"byteLength":2376,
			"byteOffset":4944,
			"target":34962
		},
		{
			"buffer":0,
			"byteLength":1584,
			"byteOffset":7320,
			"target":34962
		},
		{
			"buffer":0,
			"byteLength":720,
			"byteOffset":8904,
			"target":34963
		},
		{
			"buffer":0,
			"byteLength":576,
			"byteOffset":9624,
			"target":34962
		},
		{
			"buffer":0,
			"byteLength":576,
			"byteOffset":10200,
			"target":34962
		},
		{
			"buffer":0,
			"byteLength":384,
			"byteOffset":10776,
			"target":34962
		},
		{
			"buffer":0,
			"byteLength":192,
			"byteOffset":11160,
			"target":34963
		}
	],
	"buffers":[
		{
			"byteLength":11352,
			"uri":"error.bin"
		}
	]
}
