{
	"asset":{
		"generator":"Khronos glTF Blender I/O v3.6.27",
		"version":"2.0"
	},
	"scene":0,
	"scenes":[
		{
			"name":"Scene",
			"nodes":[
				0
			]
		}
	],
	"nodes":[
		{
			"mesh":0,
			"name":"Planet"
		}
	],
	"materials":[
		{
			"doubleSided":true,
			"name":"Road",
			"pbrMetallicRoughness":{
				"baseColorTexture":{
					"index":0
				},
				"metallicFactor":0,
				"roughnessFactor":0.5
			}
		},
		{
			"doubleSided":true,
			"name":"OuterWall",
			"pbrMetallicRoughness":{
				"baseColorTexture":{
					"index":1
				},
				"metallicFactor":0,
				"roughnessFactor":0.5
			}
		},
		{
			"doubleSided":true,
			"name":"RoadEdge",
			"pbrMetallicRoughness":{
				"baseColorTexture":{
					"index":2
				},
				"metallicFactor":0,
				"roughnessFactor":0.5
			}
		},
		{
			"doubleSided":true,
			"name":"WallTops",
			"pbrMetallicRoughness":{
				"baseColorTexture":{
					"index":3
				},
				"metallicFactor":0,
				"roughnessFactor":0.5
			}
		}
	],
	"meshes":[
		{
			"name":"Plane",
			"primitives":[
				{
					"attributes":{
						"POSITION":0,
						"NORMAL":1,
						"TEXCOORD_0":2
					},
					"indices":3,
					"material":0
				},
				{
					"attributes":{
						"POSITION":4,
						"NORMAL":5,
						"TEXCOORD_0":6
					},
					"indices":7,
					"material":1
				},
				{
					"attributes":{
						"POSITION":8,
						"NORMAL":9,
						"TEXCOORD_0":10
					},
					"indices":11,
					"material":2
				},
				{
					"attributes":{
						"POSITION":12,
						"NORMAL":13,
						"TEXCOORD_0":14
					},
					"indices":15,
					"material":3
				}
			]
		}
	],
	"textures":[
		{
			"sampler":0,
			"source":0
		},
		{
			"sampler":0,
			"source":1
		},
		{
			"sampler":0,
			"source":1
		},
		{
			"sampler":0,
			"source":1
		}
	],
	"images":[
		{
			"mimeType":"image/png",
			"name":"stone_yellow_road",
			"uri":"stone_yellow_road.png"
		},
		{
			"mimeType":"image/png",
			"name":"stone_yellow",
			"uri":"stone_yellow.png"
		}
	],
	"accessors":[
		{
			"bufferView":0,
			"componentType":5126,
			"count":292,
			"max":[
				106.81500244140625,
				2.148142099380493,
				71.767822265625
			],
			"min":[
				-83.31080627441406,
				-17.424287796020508,
				-83.57103729248047
			],
			"type":"VEC3"
		},
		{
			"bufferView":1,
			"componentType":5126,
			"count":292,
			"type":"VEC3"
		},
		{
			"bufferView":2,
			"componentType":5126,
			"count":292,
			"type":"VEC2"
		},
		{
			"bufferView":3,
			"componentType":5123,
			"count":294,
			"type":"SCALAR"
		},
		{
			"bufferView":4,
			"componentType":5126,
			"count":225,
			"max":[
				138.6400146484375,
				25.500181198120117,
				94.44153594970703
			],
			"min":[
				-107.94056701660156,
				-16.3546199798584,
				-107.0226821899414
			],
			"type":"VEC3"
		},
		{
			"bufferView":5,
			"componentType":5126,
			"count":225,
			"type":"VEC3"
		},
		{
			"bufferView":6,
			"componentType":5126,
			"count":225,
			"type":"VEC2"
		},
		{
			"bufferView":7,
			"componentType":5123,
			"count":345,
			"type":"SCALAR"
		},
		{
			"bufferView":8,
			"componentType":5126,
			"count":392,
			"max":[
				106.81500244140625,
				3.19895076751709,
				71.767822265625
			],
			"min":[
				-83.31080627441406,
				-17.424287796020508,
				-83.57103729248047
			],
			"type":"VEC3"
		},
		{
			"bufferView":9,
			"componentType":5126,
			"count":392,
			"type":"VEC3"
		},
		{
			"bufferView":10,
			"componentType":5126,
			"count":392,
			"type":"VEC2"
		},
		{
			"bufferView":11,
			"componentType":5123,
			"count":588,
			"type":"SCALAR"
		},
		{
			"bufferView":12,
			"componentType":5126,
			"count":321,
			"max":[
				84.59127807617188,
				4.163049697875977,
				52.378238677978516
			],
			"min":[
				-68.35127258300781,
				-15.204341888427734,
				-65.05964660644531
			],
			"type":"VEC3"
		},
		{
			"bufferView":13,
			"componentType":5126,
			"count":321,
			"type":"VEC3"
		},
		{
			"bufferView":14,
			"componentType":5126,
			"count":321,
			"type":"VEC2"
		},
		{
			"bufferView":15,
			"componentType":5123,
			"count":417,
			"type":"SCALAR"
		}
	],
	"bufferViews":[
		{
			"buffer":0,
			"byteLength":3504,
			"byteOffset":0,
			"target":34962
		},
		{
			"buffer":0,
			"byteLength":3504,
			"byteOffset":3504,
			"target":34962
		},
		{
			"buffer":0,
			"byteLength":2336,
			"byteOffset":7008,
			"target":34962
		},
		{
			"buffer":0,
			"byteLength":588,
			"byteOffset":9344,
			"target":34963
		},
		{
			"buffer":0,
			"byteLength":2700,
			"byteOffset":9932,
			"target":34962
		},
		{
			"buffer":0,
			"byteLength":2700,
			"byteOffset":12632,
			"target":34962
		},
		{
			"buffer":0,
			"byteLength":1800,
			"byteOffset":15332,
			"target":34962
		},
		{
			"buffer":0,
			"byteLength":690,
			"byteOffset":17132,
			"target":34963
		},
		{
			"buffer":0,
			"byteLength":4704,
			"byteOffset":17824,
			"target":34962
		},
		{
			"buffer":0,
			"byteLength":4704,
			"byteOffset":22528,
			"target":34962
		},
		{
			"buffer":0,
			"byteLength":3136,
			"byteOffset":27232,
			"target":34962
		},
		{
			"buffer":0,
			"byteLength":1176,
			"byteOffset":30368,
			"target":34963
		},
		{
			"buffer":0,
			"byteLength":3852,
			"byteOffset":31544,
			"target":34962
		},
		{
			"buffer":0,
			"byteLength":3852,
			"byteOffset":35396,
			"target":34962
		},
		{
			"buffer":0,
			"byteLength":2568,
			"byteOffset":39248,
			"target":34962
		},
		{
			"buffer":0,
			"byteLength":834,
			"byteOffset":41816,
			"target":34963
		}
	],
	"samplers":[
		{
			"magFilter":9729,
			"minFilter":9987
		}
	],
	"buffers":[
		{
			"byteLength":42652,
			"uri":"planet_saturn1.bin"
		}
	]
}
