{
	"asset":{
		"generator":"Khronos glTF Blender I/O v3.6.27",
		"version":"2.0"
	},
	"scene":0,
	"scenes":[
		{
			"name":"Scene",
			"nodes":[
				0,
				1,
				2,
				3,
				4,
				5
			]
		}
	],
	"nodes":[
		{
			"mesh":0,
			"name":"Cylinder",
			"rotation":[
				0,
				0,
				-0.7071068286895752,
				0.7071068286895752
			],
			"scale":[
				1,
				0.3999999761581421,
				1
			],
			"translation":[
				-2.4986624717712402,
				0,
				3.0036802291870117
			]
		},
		{
			"mesh":0,
			"name":"Cylinder.001",
			"rotation":[
				0,
				0,
				-0.7071068286895752,
				0.7071068286895752
			],
			"scale":[
				1,
				0.3999999761581421,
				1
			],
			"translation":[
				-2.4986624717712402,
				0,
				-3.020780086517334
			]
		},
		{
			"mesh":0,
			"name":"Cylinder.002",
			"rotation":[
				0,
				0,
				-0.7071068286895752,
				0.7071068286895752
			],
			"scale":[
				1,
				0.3999999761581421,
				1
			],
			"translation":[
				2.5103626251220703,
				0,
				3.0036802291870117
			]
		},
		{
			"mesh":0,
			"name":"Cylinder.003",
			"rotation":[
				0,
				0,
				-0.7071068286895752,
				0.7071068286895752
			],
			"scale":[
				1,
				0.3999999761581421,
				1
			],
			"translation":[
				2.5103626251220703,
				0,
				-3.020780086517334
			]
		},
		{
			"mesh":1,
			"name":"Cube",
			"scale":[
				1.09918212890625,
				1,
				1
			]
		},
		{
			"mesh":2,
			"name":"Icosphere.001",
			"scale":[
				0.9397088289260864,
				0.8021277785301208,
				0.9397088289260864
			],
			"translation":[
				0,
				3.527735710144043,
				0
			]
		}
	],
	"materials":[
		{
			"doubleSided":true,
			"name":"Tire",
			"pbrMetallicRoughness":{
				"baseColorTexture":{
					"index":0
				},
				"metallicFactor":0,
				"roughnessFactor":0.5
			}
		},
		{
			"doubleSided":true,
			"name":"Chasis",
			"pbrMetallicRoughness":{
				"baseColorTexture":{
					"index":1
				},
				"metallicFactor":0,
				"roughnessFactor":0.5
			}
		},
		{
			"doubleSided":true,
			"name":"Alien",
			"pbrMetallicRoughness":{
				"baseColorTexture":{
					"index":2
				},
				"metallicFactor":0,
				"roughnessFactor":0.5
			}
		}
	],
	"meshes":[
		{
			"name":"Cylinder",
			"primitives":[
				{
					"attributes":{
						"POSITION":0,
						"NORMAL":1,
						"TEXCOORD_0":2
					},
					"indices":3,
					"material":0
				}
			]
		},
		{
			"name":"Cube.001",
			"primitives":[
				{
					"attributes":{
						"POSITION":4,
						"NORMAL":5,
						"TEXCOORD_0":6
					},
					"indices":7,
					"material":1
				}
			]
		},
		{
			"name":"Icosphere.001",
			"primitives":[
				{
					"attributes":{
						"POSITION":8,
						"NORMAL":9,
						"TEXCOORD_0":10
					},
					"indices":11,
					"material":2
				}
			]
		}
	],
	"textures":[
		{
			"sampler":0,
			"source":0
		},
		{
			"sampler":0,
			"source":1
		},
		{
			"sampler":0,
			"source":2
		}
	],
	"images":[
		{
			"mimeType":"image/png",
			"name":"tire32",
			"uri":"tire32.png"
		},
		{
			"mimeType":"image/png",
			"name":"chasis",
			"uri":"chasis.png"
		},
		{
			"mimeType":"image/png",
			"name":"alien",
			"uri":"alien.png"
		}
	],
	"accessors":[
		{
			"bufferView":0,
			"componentType":5126,
			"count":448,
			"max":[
				1,
				1,
				1
			],
			"min":[
				-1,
				-1,
				-1
			],
			"type":"VEC3"
		},
		{
			"bufferView":1,
			"componentType":5126,
			"count":448,
			"type":"VEC3"
		},
		{
			"bufferView":2,
			"componentType":5126,
			"count":448,
			"type":"VEC2"
		},
		{
			"bufferView":3,
			"componentType":5123,
			"count":756,
			"type":"SCALAR"
		},
		{
			"bufferView":4,
			"componentType":5126,
			"count":250,
			"max":[
				2.3551132678985596,
				1.8157198429107666,
				5.7164530754089355
			],
			"min":[
				0,
				-0.30357205867767334,
				-5.46712064743042
			],
			"type":"VEC3"
		},
		{
			"bufferView":5,
			"componentType":5126,
			"count":250,
			"type":"VEC3"
		},
		{
			"bufferView":6,
			"componentType":5126,
			"count":250,
			"type":"VEC2"
		},
		{
			"bufferView":7,
			"componentType":5123,
			"count":534,
			"type":"SCALAR"
		},
		{
			"bufferView":8,
			"componentType":5126,
			"count":480,
			"max":[
				0.9510578513145447,
				1,
				0.9999999403953552
			],
			"min":[
				-0.9510578513145447,
				-3.8408122062683105,
				-0.9999999403953552
			],
			"type":"VEC3"
		},
		{
			"bufferView":9,
			"componentType":5126,
			"count":480,
			"type":"VEC3"
		},
		{
			"bufferView":10,
			"componentType":5126,
			"count":480,
			"type":"VEC2"
		},
		{
			"bufferView":11,
			"componentType":5123,
			"count":480,
			"type":"SCALAR"
		}
	],
	"bufferViews":[
		{
			"buffer":0,
			"byteLength":5376,
			"byteOffset":0,
			"target":34962
		},
		{
			"buffer":0,
			"byteLength":5376,
			"byteOffset":5376,
			"target":34962
		},
		{
			"buffer":0,
			"byteLength":3584,
			"byteOffset":10752,
			"target":34962
		},
		{
			"buffer":0,
			"byteLength":1512,
			"byteOffset":14336,
			"target":34963
		},
		{
			"buffer":0,
			"byteLength":3000,
			"byteOffset":15848,
			"target":34962
		},
		{
			"buffer":0,
			"byteLength":3000,
			"byteOffset":18848,
			"target":34962
		},
		{
			"buffer":0,
			"byteLength":2000,
			"byteOffset":21848,
			"target":34962
		},
		{
			"buffer":0,
			"byteLength":1068,
			"byteOffset":23848,
			"target":34963
		},
		{
			"buffer":0,
			"byteLength":5760,
			"byteOffset":24916,
			"target":34962
		},
		{
			"buffer":0,
			"byteLength":5760,
			"byteOffset":30676,
			"target":34962
		},
		{
			"buffer":0,
			"byteLength":3840,
			"byteOffset":36436,
			"target":34962
		},
		{
			"buffer":0,
			"byteLength":960,
			"byteOffset":40276,
			"target":34963
		}
	],
	"samplers":[
		{
			"magFilter":9729,
			"minFilter":9987
		}
	],
	"buffers":[
		{
			"byteLength":41236,
			"uri":"proto_kart1.bin"
		}
	]
}
