{
	"asset":{
		"generator":"Khronos glTF Blender I/O v3.6.27",
		"version":"2.0"
	},
	"scene":0,
	"scenes":[
		{
			"name":"Scene",
			"nodes":[
				0,
				1,
				2
			]
		}
	],
	"nodes":[
		{
			"mesh":0,
			"name":"Chasis"
		},
		{
			"mesh":1,
			"name":"Tires"
		},
		{
			"mesh":2,
			"name":"Alien"
		}
	],
	"materials":[
		{
			"doubleSided":true,
			"name":"Chasis",
			"pbrMetallicRoughness":{
				"baseColorTexture":{
					"index":0
				},
				"metallicFactor":0,
				"roughnessFactor":0.5
			}
		},
		{
			"alphaMode":"BLEND",
			"doubleSided":true,
			"name":"Material.001",
			"pbrMetallicRoughness":{
				"baseColorTexture":{
					"index":1
				},
				"metallicFactor":0,
				"roughnessFactor":0.5
			}
		},
		{
			"doubleSided":true,
			"name":"Alien",
			"pbrMetallicRoughness":{
				"baseColorTexture":{
					"index":2
				},
				"metallicFactor":0,
				"roughnessFactor":0.5
			}
		}
	],
	"meshes":[
		{
			"name":"Circle.001",
			"primitives":[
				{
					"attributes":{
						"POSITION":0,
						"NORMAL":1,
						"TEXCOORD_0":2
					},
					"indices":3,
					"material":0
				}
			]
		},
		{
			"name":"Cylinder",
			"primitives":[
				{
					"attributes":{
						"POSITION":4,
						"NORMAL":5,
						"TEXCOORD_0":6
					},
					"indices":7,
					"material":1
				}
			]
		},
		{
			"name":"Icosphere",
			"primitives":[
				{
					"attributes":{
						"POSITION":8,
						"NORMAL":9,
						"TEXCOORD_0":10
					},
					"indices":11,
					"material":2
				}
			]
		}
	],
	"textures":[
		{
			"sampler":0,
			"source":0
		},
		{
			"sampler":1,
			"source":1
		},
		{
			"sampler":0,
			"source":2
		}
	],
	"images":[
		{
			"mimeType":"image/png",
			"name":"proto_kart3",
			"uri":"proto_kart3.png"
		},
		{
			"mimeType":"image/png",
			"name":"ash_kart",
			"uri":"ash_kart.png"
		},
		{
			"mimeType":"image/png",
			"name":"alien",
			"uri":"alien.png"
		}
	],
	"accessors":[
		{
			"bufferView":0,
			"componentType":5126,
			"count":228,
			"max":[
				0.7680981159210205,
				0.5271971821784973,
				0.5180649161338806
			],
			"min":[
				-0.8821927309036255,
				0.000619043770711869,
				-0.5180649161338806
			],
			"type":"VEC3"
		},
		{
			"bufferView":1,
			"componentType":5126,
			"count":228,
			"type":"VEC3"
		},
		{
			"bufferView":2,
			"componentType":5126,
			"count":228,
			"type":"VEC2"
		},
		{
			"bufferView":3,
			"componentType":5123,
			"count":348,
			"type":"SCALAR"
		},
		{
			"bufferView":4,
			"componentType":5126,
			"count":336,
			"max":[
				0.8361402750015259,
				0.17962336540222168,
				0.5996423363685608
			],
			"min":[
				-0.8231491446495056,
				-0.17962336540222168,
				-0.5996423363685608
			],
			"type":"VEC3"
		},
		{
			"bufferView":5,
			"componentType":5126,
			"count":336,
			"type":"VEC3"
		},
		{
			"bufferView":6,
			"componentType":5126,
			"count":336,
			"type":"VEC2"
		},
		{
			"bufferView":7,
			"componentType":5123,
			"count":528,
			"type":"SCALAR"
		},
		{
			"bufferView":8,
			"componentType":5126,
			"count":358,
			"max":[
				-0.1284145712852478,
				0.7379054427146912,
				0.19577467441558838
			],
			"min":[
				-0.5084941983222961,
				0.20980913937091827,
				-0.19577467441558838
			],
			"type":"VEC3"
		},
		{
			"bufferView":9,
			"componentType":5126,
			"count":358,
			"type":"VEC3"
		},
		{
			"bufferView":10,
			"componentType":5126,
			"count":358,
			"type":"VEC2"
		},
		{
			"bufferView":11,
			"componentType":5123,
			"count":438,
			"type":"SCALAR"
		}
	],
	"bufferViews":[
		{
			"buffer":0,
			"byteLength":2736,
			"byteOffset":0,
			"target":34962
		},
		{
			"buffer":0,
			"byteLength":2736,
			"byteOffset":2736,
			"target":34962
		},
		{
			"buffer":0,
			"byteLength":1824,
			"byteOffset":5472,
			"target":34962
		},
		{
			"buffer":0,
			"byteLength":696,
			"byteOffset":7296,
			"target":34963
		},
		{
			"buffer":0,
			"byteLength":4032,
			"byteOffset":7992,
			"target":34962
		},
		{
			"buffer":0,
			"byteLength":4032,
			"byteOffset":12024,
			"target":34962
		},
		{
			"buffer":0,
			"byteLength":2688,
			"byteOffset":16056,
			"target":34962
		},
		{
			"buffer":0,
			"byteLength":1056,
			"byteOffset":18744,
			"target":34963
		},
		{
			"buffer":0,
			"byteLength":4296,
			"byteOffset":19800,
			"target":34962
		},
		{
			"buffer":0,
			"byteLength":4296,
			"byteOffset":24096,
			"target":34962
		},
		{
			"buffer":0,
			"byteLength":2864,
			"byteOffset":28392,
			"target":34962
		},
		{
			"buffer":0,
			"byteLength":876,
			"byteOffset":31256,
			"target":34963
		}
	],
	"samplers":[
		{
			"magFilter":9729,
			"minFilter":9987
		},
		{
			"magFilter":9728,
			"minFilter":9984
		}
	],
	"buffers":[
		{
			"byteLength":32132,
			"uri":"proto_kart3.bin"
		}
	]
}
