{
	"asset":{
		"generator":"Khronos glTF Blender I/O v3.6.27",
		"version":"2.0"
	},
	"scene":0,
	"scenes":[
		{
			"name":"Scene",
			"nodes":[
				0,
				1,
				2,
				3,
				4,
				5,
				6,
				7,
				8,
				9,
				10
			]
		}
	],
	"nodes":[
		{
			"mesh":0,
			"name":"Cube",
			"rotation":[
				0,
				0,
				0.03528226166963577,
				0.999377429485321
			],
			"scale":[
				0.4034561216831207,
				0.4034561216831207,
				0.4034561514854431
			],
			"translation":[
				0.1074356734752655,
				0.16575729846954346,
				0.0006036368431523442
			]
		},
		{
			"mesh":1,
			"name":"Cylinder",
			"rotation":[
				-0.7071068286895752,
				0,
				0,
				0.7071068286895752
			],
			"scale":[
				0.23561711609363556,
				0.37360116839408875,
				0.23561711609363556
			],
			"translation":[
				-0.539974570274353,
				0.01774488389492035,
				0.5584369897842407
			]
		},
		{
			"mesh":2,
			"name":"Cylinder.001",
			"rotation":[
				-0.7071068286895752,
				0,
				0,
				0.7071068286895752
			],
			"scale":[
				0.23561711609363556,
				0.37360116839408875,
				0.23561711609363556
			],
			"translation":[
				0.7652410268783569,
				0.01774488389492035,
				0.5584369897842407
			]
		},
		{
			"mesh":3,
			"name":"Cylinder.002",
			"rotation":[
				-0.7071068286895752,
				0,
				0,
				0.7071068286895752
			],
			"scale":[
				0.23561711609363556,
				0.37360116839408875,
				0.23561711609363556
			],
			"translation":[
				-0.539974570274353,
				0.01774488389492035,
				-0.5552259683609009
			]
		},
		{
			"mesh":4,
			"name":"Cylinder.003",
			"rotation":[
				-0.7071068286895752,
				0,
				0,
				0.7071068286895752
			],
			"scale":[
				0.23561711609363556,
				0.37360116839408875,
				0.23561711609363556
			],
			"translation":[
				0.7652410268783569,
				0.01774488389492035,
				-0.5552259683609009
			]
		},
		{
			"mesh":5,
			"name":"Cube.001",
			"rotation":[
				0,
				0,
				-1,
				0
			],
			"scale":[
				0.03105073980987072,
				0.03105073980987072,
				0.5207589864730835
			],
			"translation":[
				0.7684764862060547,
				0.01774485409259796,
				0.0006036368431523442
			]
		},
		{
			"mesh":5,
			"name":"Cube.002",
			"rotation":[
				0,
				0,
				-1,
				0
			],
			"scale":[
				0.03105073980987072,
				0.03105073980987072,
				0.5207589864730835
			],
			"translation":[
				-0.5444804430007935,
				0.01774485409259796,
				0.0006036368431523442
			]
		},
		{
			"mesh":6,
			"name":"Cylinder.004",
			"rotation":[
				0.7071068286895752,
				0,
				0,
				0.7071068286895752
			],
			"scale":[
				0.4034561514854431,
				0.4034561514854431,
				0.4034561514854431
			],
			"translation":[
				0.7732049226760864,
				0.01774485409259796,
				0.0006036368431523442
			]
		},
		{
			"mesh":7,
			"name":"Cube.003",
			"scale":[
				0.4034561514854431,
				0.4034561514854431,
				0.4034561514854431
			],
			"translation":[
				0.1074356734752655,
				0.01774485409259796,
				0.0006036368431523442
			]
		},
		{
			"mesh":8,
			"name":"Cube.005",
			"rotation":[
				0,
				0,
				0.15264765918254852,
				0.9882807731628418
			],
			"scale":[
				0.10863178223371506,
				0.10863184928894043,
				0.013035819865763187
			],
			"translation":[
				0.681991457939148,
				0.5358461737632751,
				-0.00014996167737990618
			]
		},
		{
			"mesh":9,
			"name":"Cube.004",
			"scale":[
				0.1563469022512436,
				0.18741026520729065,
				0.010863170027732849
			],
			"translation":[
				0.6366405487060547,
				0.44229042530059814,
				0.009824377484619617
			]
		}
	],
	"materials":[
		{
			"doubleSided":true,
			"name":"Chasis",
			"pbrMetallicRoughness":{
				"baseColorTexture":{
					"index":0
				},
				"metallicFactor":0,
				"roughnessFactor":0.5
			}
		},
		{
			"doubleSided":true,
			"name":"Tire",
			"pbrMetallicRoughness":{
				"baseColorTexture":{
					"index":1
				},
				"metallicFactor":0,
				"roughnessFactor":0.5
			}
		},
		{
			"doubleSided":true,
			"name":"Tire",
			"pbrMetallicRoughness":{
				"baseColorTexture":{
					"index":2
				},
				"metallicFactor":0,
				"roughnessFactor":0.5
			}
		},
		{
			"doubleSided":true,
			"name":"Axel",
			"pbrMetallicRoughness":{
				"baseColorTexture":{
					"index":3
				},
				"metallicFactor":0,
				"roughnessFactor":0.5
			}
		}
	],
	"meshes":[
		{
			"name":"Cube",
			"primitives":[
				{
					"attributes":{
						"POSITION":0,
						"NORMAL":1,
						"TEXCOORD_0":2
					},
					"indices":3,
					"material":0
				}
			]
		},
		{
			"name":"Cylinder",
			"primitives":[
				{
					"attributes":{
						"POSITION":4,
						"NORMAL":5,
						"TEXCOORD_0":6
					},
					"indices":7,
					"material":1
				}
			]
		},
		{
			"name":"Cylinder",
			"primitives":[
				{
					"attributes":{
						"POSITION":8,
						"NORMAL":9,
						"TEXCOORD_0":10
					},
					"indices":7,
					"material":1
				}
			]
		},
		{
			"name":"Cylinder.002",
			"primitives":[
				{
					"attributes":{
						"POSITION":11,
						"NORMAL":12,
						"TEXCOORD_0":13
					},
					"indices":14,
					"material":2
				}
			]
		},
		{
			"name":"Cylinder",
			"primitives":[
				{
					"attributes":{
						"POSITION":15,
						"NORMAL":16,
						"TEXCOORD_0":17
					},
					"indices":7,
					"material":1
				}
			]
		},
		{
			"name":"Cube.001",
			"primitives":[
				{
					"attributes":{
						"POSITION":18,
						"NORMAL":19,
						"TEXCOORD_0":20
					},
					"indices":21,
					"material":3
				}
			]
		},
		{
			"name":"Cylinder.001",
			"primitives":[
				{
					"attributes":{
						"POSITION":22,
						"NORMAL":23,
						"TEXCOORD_0":24
					},
					"indices":25,
					"material":2
				}
			]
		},
		{
			"name":"Cube.002",
			"primitives":[
				{
					"attributes":{
						"POSITION":26,
						"NORMAL":27,
						"TEXCOORD_0":28
					},
					"indices":29,
					"material":2
				}
			]
		},
		{
			"name":"Cube.004",
			"primitives":[
				{
					"attributes":{
						"POSITION":30,
						"NORMAL":31,
						"TEXCOORD_0":32
					},
					"indices":33,
					"material":0
				}
			]
		},
		{
			"name":"Cube.005",
			"primitives":[
				{
					"attributes":{
						"POSITION":34,
						"NORMAL":35,
						"TEXCOORD_0":36
					},
					"indices":37,
					"material":2
				}
			]
		}
	],
	"textures":[
		{
			"sampler":0,
			"source":0
		},
		{
			"sampler":0,
			"source":1
		},
		{
			"sampler":0,
			"source":1
		},
		{
			"sampler":0,
			"source":1
		}
	],
	"images":[
		{
			"mimeType":"image/png",
			"name":"chasis",
			"uri":"chasis.png"
		},
		{
			"mimeType":"image/png",
			"name":"tire32",
			"uri":"tire32.png"
		}
	],
	"accessors":[
		{
			"bufferView":0,
			"componentType":5126,
			"count":398,
			"max":[
				1.7027844190597534,
				0.7187016606330872,
				1.7775529623031616
			],
			"min":[
				-2.555683135986328,
				-0.6364128589630127,
				-1.7775529623031616
			],
			"type":"VEC3"
		},
		{
			"bufferView":1,
			"componentType":5126,
			"count":398,
			"type":"VEC3"
		},
		{
			"bufferView":2,
			"componentType":5126,
			"count":398,
			"type":"VEC2"
		},
		{
			"bufferView":3,
			"componentType":5123,
			"count":702,
			"type":"SCALAR"
		},
		{
			"bufferView":4,
			"componentType":5126,
			"count":384,
			"max":[
				1,
				0.3871009945869446,
				1
			],
			"min":[
				-1,
				-0.3871009945869446,
				-1
			],
			"type":"VEC3"
		},
		{
			"bufferView":5,
			"componentType":5126,
			"count":384,
			"type":"VEC3"
		},
		{
			"bufferView":6,
			"componentType":5126,
			"count":384,
			"type":"VEC2"
		},
		{
			"bufferView":7,
			"componentType":5123,
			"count":636,
			"type":"SCALAR"
		},
		{
			"bufferView":8,
			"componentType":5126,
			"count":384,
			"max":[
				1,
				0.3871009945869446,
				1
			],
			"min":[
				-1,
				-0.3871009945869446,
				-1
			],
			"type":"VEC3"
		},
		{
			"bufferView":9,
			"componentType":5126,
			"count":384,
			"type":"VEC3"
		},
		{
			"bufferView":10,
			"componentType":5126,
			"count":384,
			"type":"VEC2"
		},
		{
			"bufferView":11,
			"componentType":5126,
			"count":336,
			"max":[
				1,
				0.3871009945869446,
				1
			],
			"min":[
				-1,
				-0.3871009945869446,
				-1
			],
			"type":"VEC3"
		},
		{
			"bufferView":12,
			"componentType":5126,
			"count":336,
			"type":"VEC3"
		},
		{
			"bufferView":13,
			"componentType":5126,
			"count":336,
			"type":"VEC2"
		},
		{
			"bufferView":14,
			"componentType":5123,
			"count":564,
			"type":"SCALAR"
		},
		{
			"bufferView":15,
			"componentType":5126,
			"count":384,
			"max":[
				1,
				0.3871009945869446,
				1
			],
			"min":[
				-1,
				-0.3871009945869446,
				-1
			],
			"type":"VEC3"
		},
		{
			"bufferView":16,
			"componentType":5126,
			"count":384,
			"type":"VEC3"
		},
		{
			"bufferView":17,
			"componentType":5126,
			"count":384,
			"type":"VEC2"
		},
		{
			"bufferView":18,
			"componentType":5126,
			"count":16,
			"max":[
				1,
				1,
				1
			],
			"min":[
				-1,
				-1,
				-1
			],
			"type":"VEC3"
		},
		{
			"bufferView":19,
			"componentType":5126,
			"count":16,
			"type":"VEC3"
		},
		{
			"bufferView":20,
			"componentType":5126,
			"count":16,
			"type":"VEC2"
		},
		{
			"bufferView":21,
			"componentType":5123,
			"count":24,
			"type":"SCALAR"
		},
		{
			"bufferView":22,
			"componentType":5126,
			"count":48,
			"max":[
				0.30000001192092896,
				0.375,
				0.30000001192092896
			],
			"min":[
				-0.30000001192092896,
				-0.375,
				-0.30000001192092896
			],
			"type":"VEC3"
		},
		{
			"bufferView":23,
			"componentType":5126,
			"count":48,
			"type":"VEC3"
		},
		{
			"bufferView":24,
			"componentType":5126,
			"count":48,
			"type":"VEC2"
		},
		{
			"bufferView":25,
			"componentType":5123,
			"count":84,
			"type":"SCALAR"
		},
		{
			"bufferView":26,
			"componentType":5126,
			"count":50,
			"max":[
				0.7284401059150696,
				1.441212773323059,
				0.4540511965751648
			],
			"min":[
				-0.21325981616973877,
				0.3930578827857971,
				-0.4540511965751648
			],
			"type":"VEC3"
		},
		{
			"bufferView":27,
			"componentType":5126,
			"count":50,
			"type":"VEC3"
		},
		{
			"bufferView":28,
			"componentType":5126,
			"count":50,
			"type":"VEC2"
		},
		{
			"bufferView":29,
			"componentType":5123,
			"count":72,
			"type":"SCALAR"
		},
		{
			"bufferView":30,
			"componentType":5126,
			"count":80,
			"max":[
				1,
				1.0000007152557373,
				31.155014038085938
			],
			"min":[
				-1,
				-0.9999992847442627,
				-31.155014038085938
			],
			"type":"VEC3"
		},
		{
			"bufferView":31,
			"componentType":5126,
			"count":80,
			"type":"VEC3"
		},
		{
			"bufferView":32,
			"componentType":5126,
			"count":80,
			"type":"VEC2"
		},
		{
			"bufferView":33,
			"componentType":5123,
			"count":132,
			"type":"SCALAR"
		},
		{
			"bufferView":34,
			"componentType":5126,
			"count":16,
			"max":[
				0.638106107711792,
				0.539697527885437,
				1.0000003576278687
			],
			"min":[
				-0.5115386247634888,
				-0.5449419617652893,
				-1
			],
			"type":"VEC3"
		},
		{
			"bufferView":35,
			"componentType":5126,
			"count":16,
			"type":"VEC3"
		},
		{
			"bufferView":36,
			"componentType":5126,
			"count":16,
			"type":"VEC2"
		},
		{
			"bufferView":37,
			"componentType":5123,
			"count":24,
			"type":"SCALAR"
		}
	],
	"bufferViews":[
		{
			"buffer":0,
			"byteLength":4776,
			"byteOffset":0,
			"target":34962
		},
		{
			"buffer":0,
			"byteLength":4776,
			"byteOffset":4776,
			"target":34962
		},
		{
			"buffer":0,
			"byteLength":3184,
			"byteOffset":9552,
			"target":34962
		},
		{
			"buffer":0,
			"byteLength":1404,
			"byteOffset":12736,
			"target":34963
		},
		{
			"buffer":0,
			"byteLength":4608,
			"byteOffset":14140,
			"target":34962
		},
		{
			"buffer":0,
			"byteLength":4608,
			"byteOffset":18748,
			"target":34962
		},
		{
			"buffer":0,
			"byteLength":3072,
			"byteOffset":23356,
			"target":34962
		},
		{
			"buffer":0,
			"byteLength":1272,
			"byteOffset":26428,
			"target":34963
		},
		{
			"buffer":0,
			"byteLength":4608,
			"byteOffset":27700,
			"target":34962
		},
		{
			"buffer":0,
			"byteLength":4608,
			"byteOffset":32308,
			"target":34962
		},
		{
			"buffer":0,
			"byteLength":3072,
			"byteOffset":36916,
			"target":34962
		},
		{
			"buffer":0,
			"byteLength":4032,
			"byteOffset":39988,
			"target":34962
		},
		{
			"buffer":0,
			"byteLength":4032,
			"byteOffset":44020,
			"target":34962
		},
		{
			"buffer":0,
			"byteLength":2688,
			"byteOffset":48052,
			"target":34962
		},
		{
			"buffer":0,
			"byteLength":1128,
			"byteOffset":50740,
			"target":34963
		},
		{
			"buffer":0,
			"byteLength":4608,
			"byteOffset":51868,
			"target":34962
		},
		{
			"buffer":0,
			"byteLength":4608,
			"byteOffset":56476,
			"target":34962
		},
		{
			"buffer":0,
			"byteLength":3072,
			"byteOffset":61084,
			"target":34962
		},
		{
			"buffer":0,
			"byteLength":192,
			"byteOffset":64156,
			"target":34962
		},
		{
			"buffer":0,
			"byteLength":192,
			"byteOffset":64348,
			"target":34962
		},
		{
			"buffer":0,
			"byteLength":128,
			"byteOffset":64540,
			"target":34962
		},
		{
			"buffer":0,
			"byteLength":48,
			"byteOffset":64668,
			"target":34963
		},
		{
			"buffer":0,
			"byteLength":576,
			"byteOffset":64716,
			"target":34962
		},
		{
			"buffer":0,
			"byteLength":576,
			"byteOffset":65292,
			"target":34962
		},
		{
			"buffer":0,
			"byteLength":384,
			"byteOffset":65868,
			"target":34962
		},
		{
			"buffer":0,
			"byteLength":168,
			"byteOffset":66252,
			"target":34963
		},
		{
			"buffer":0,
			"byteLength":600,
			"byteOffset":66420,
			"target":34962
		},
		{
			"buffer":0,
			"byteLength":600,
			"byteOffset":67020,
			"target":34962
		},
		{
			"buffer":0,
			"byteLength":400,
			"byteOffset":67620,
			"target":34962
		},
		{
			"buffer":0,
			"byteLength":144,
			"byteOffset":68020,
			"target":34963
		},
		{
			"buffer":0,
			"byteLength":960,
			"byteOffset":68164,
			"target":34962
		},
		{
			"buffer":0,
			"byteLength":960,
			"byteOffset":69124,
			"target":34962
		},
		{
			"buffer":0,
			"byteLength":640,
			"byteOffset":70084,
			"target":34962
		},
		{
			"buffer":0,
			"byteLength":264,
			"byteOffset":70724,
			"target":34963
		},
		{
			"buffer":0,
			"byteLength":192,
			"byteOffset":70988,
			"target":34962
		},
		{
			"buffer":0,
			"byteLength":192,
			"byteOffset":71180,
			"target":34962
		},
		{
			"buffer":0,
			"byteLength":128,
			"byteOffset":71372,
			"target":34962
		},
		{
			"buffer":0,
			"byteLength":48,
			"byteOffset":71500,
			"target":34963
		}
	],
	"samplers":[
		{
			"magFilter":9729,
			"minFilter":9987
		}
	],
	"buffers":[
		{
			"byteLength":71548,
			"uri":"proto_kart2.bin"
		}
	]
}
