{
	"asset":{
		"generator":"Khronos glTF Blender I/O v3.6.27",
		"version":"2.0"
	},
	"scene":0,
	"scenes":[
		{
			"name":"Scene",
			"nodes":[
				0
			]
		}
	],
	"nodes":[
		{
			"mesh":0,
			"name":"grass",
			"scale":[
				1.5,
				1.5,
				1.5
			]
		}
	],
	"materials":[
		{
			"doubleSided":true,
			"name":"grass",
			"pbrMetallicRoughness":{
				"baseColorTexture":{
					"index":0
				},
				"metallicFactor":0,
				"roughnessFactor":0.5
			}
		},
		{
			"doubleSided":true,
			"name":"wood",
			"pbrMetallicRoughness":{
				"baseColorTexture":{
					"index":1
				},
				"metallicFactor":0,
				"roughnessFactor":0.5
			}
		},
		{
			"doubleSided":true,
			"name":"rock",
			"pbrMetallicRoughness":{
				"baseColorTexture":{
					"index":2
				},
				"metallicFactor":0,
				"roughnessFactor":0.5
			}
		}
	],
	"meshes":[
		{
			"name":"Plane",
			"primitives":[
				{
					"attributes":{
						"POSITION":0,
						"NORMAL":1,
						"TEXCOORD_0":2
					},
					"indices":3,
					"material":0
				},
				{
					"attributes":{
						"POSITION":4,
						"NORMAL":5,
						"TEXCOORD_0":6
					},
					"indices":7,
					"material":1
				},
				{
					"attributes":{
						"POSITION":8,
						"NORMAL":9,
						"TEXCOORD_0":10
					},
					"indices":11,
					"material":2
				}
			]
		}
	],
	"textures":[
		{
			"sampler":0,
			"source":0
		},
		{
			"sampler":0,
			"source":1
		},
		{
			"sampler":0,
			"source":2
		}
	],
	"images":[
		{
			"mimeType":"image/png",
			"name":"leaves1",
			"uri":"leaves1.png"
		},
		{
			"mimeType":"image/png",
			"name":"wood1",
			"uri":"wood1.png"
		},
		{
			"mimeType":"image/png",
			"name":"rock1",
			"uri":"rock1.png"
		}
	],
	"accessors":[
		{
			"bufferView":0,
			"componentType":5126,
			"count":526,
			"max":[
				26.633392333984375,
				6.356914043426514,
				8.981487274169922
			],
			"min":[
				-19.356204986572266,
				-0.1205645427107811,
				-37.63235092163086
			],
			"type":"VEC3"
		},
		{
			"bufferView":1,
			"componentType":5126,
			"count":526,
			"type":"VEC3"
		},
		{
			"bufferView":2,
			"componentType":5126,
			"count":526,
			"type":"VEC2"
		},
		{
			"bufferView":3,
			"componentType":5123,
			"count":660,
			"type":"SCALAR"
		},
		{
			"bufferView":4,
			"componentType":5126,
			"count":149,
			"max":[
				-1.7432966232299805,
				7.282600402832031,
				-6.0185136795043945
			],
			"min":[
				-13.447260856628418,
				-0.19904446601867676,
				-31.701391220092773
			],
			"type":"VEC3"
		},
		{
			"bufferView":5,
			"componentType":5126,
			"count":149,
			"type":"VEC3"
		},
		{
			"bufferView":6,
			"componentType":5126,
			"count":149,
			"type":"VEC2"
		},
		{
			"bufferView":7,
			"componentType":5123,
			"count":243,
			"type":"SCALAR"
		},
		{
			"bufferView":8,
			"componentType":5126,
			"count":319,
			"max":[
				26.633392333984375,
				7.010869979858398,
				-6.481230735778809
			],
			"min":[
				-19.356204986572266,
				-0.1205645427107811,
				-37.63235092163086
			],
			"type":"VEC3"
		},
		{
			"bufferView":9,
			"componentType":5126,
			"count":319,
			"type":"VEC3"
		},
		{
			"bufferView":10,
			"componentType":5126,
			"count":319,
			"type":"VEC2"
		},
		{
			"bufferView":11,
			"componentType":5123,
			"count":366,
			"type":"SCALAR"
		}
	],
	"bufferViews":[
		{
			"buffer":0,
			"byteLength":6312,
			"byteOffset":0,
			"target":34962
		},
		{
			"buffer":0,
			"byteLength":6312,
			"byteOffset":6312,
			"target":34962
		},
		{
			"buffer":0,
			"byteLength":4208,
			"byteOffset":12624,
			"target":34962
		},
		{
			"buffer":0,
			"byteLength":1320,
			"byteOffset":16832,
			"target":34963
		},
		{
			"buffer":0,
			"byteLength":1788,
			"byteOffset":18152,
			"target":34962
		},
		{
			"buffer":0,
			"byteLength":1788,
			"byteOffset":19940,
			"target":34962
		},
		{
			"buffer":0,
			"byteLength":1192,
			"byteOffset":21728,
			"target":34962
		},
		{
			"buffer":0,
			"byteLength":486,
			"byteOffset":22920,
			"target":34963
		},
		{
			"buffer":0,
			"byteLength":3828,
			"byteOffset":23408,
			"target":34962
		},
		{
			"buffer":0,
			"byteLength":3828,
			"byteOffset":27236,
			"target":34962
		},
		{
			"buffer":0,
			"byteLength":2552,
			"byteOffset":31064,
			"target":34962
		},
		{
			"buffer":0,
			"byteLength":732,
			"byteOffset":33616,
			"target":34963
		}
	],
	"samplers":[
		{
			"magFilter":9729,
			"minFilter":9987
		}
	],
	"buffers":[
		{
			"byteLength":34348,
			"uri":"proto_planet2.bin"
		}
	]
}
